<svg width="512" height="512" xmlns="http://www.w3.org/2000/svg">

 <g>
  <title>background</title>
  <rect fill="none" id="canvas_background" height="402" width="582" y="-1" x="-1"/>
 </g>
 <g>
  <title fill="#fecc68">Layer 1</title>
  <path fill="#fecc68" id="svg_1" d="m256,8c137,0 248,111 248,248s-111,248 -248,248s-248,-111 -248,-248s111,-248 248,-248zm-28.9,143.6l75.5,72.4l-182.6,0c-13.3,0 -24,10.7 -24,24l0,16c0,13.3 10.7,24 24,24l182.6,0l-75.5,72.4c-9.7,9.3 -9.9,24.8 -0.4,34.3l11,10.9c9.4,9.4 24.6,9.4 33.9,0l132.7,-132.6c9.4,-9.4 9.4,-24.6 0,-33.9l-132.7,-132.8c-9.4,-9.4 -24.6,-9.4 -33.9,0l-11,10.9c-9.5,9.6 -9.3,25.1 0.4,34.4z"/>
 </g>
</svg>